<?xml version="1.0" encoding="UTF-8"?>
<svg xmlns="http://www.w3.org/2000/svg" xmlns:xlink="http://www.w3.org/1999/xlink" viewBox="0 0 48 48" version="1.1" width="48px" height="48px">
<g id="surface1">
<path style=" fill:#3F51B5;" d="M 15 11 C 15 12.65625 13.65625 14 12 14 C 10.34375 14 9 12.65625 9 11 C 9 9.34375 10.34375 8 12 8 C 13.65625 8 15 9.34375 15 11 Z "/>
<path style=" fill:#3F51B5;" d="M 25 11 C 25 13.210938 23.210938 15 21 15 C 18.789063 15 17 13.210938 17 11 C 17 8.789063 18.789063 7 21 7 C 23.210938 7 25 8.789063 25 11 Z "/>
<path style=" fill:#3F51B5;" d="M 38 11.5 C 38 14.539063 35.539063 17 32.5 17 C 29.460938 17 27 14.539063 27 11.5 C 27 8.460938 29.460938 6 32.5 6 C 35.539063 6 38 8.460938 38 11.5 Z "/>
<path style=" fill:#3F51B5;" d="M 41 42 L 41 28.5 C 41 23.804688 37.195313 20 32.5 20 C 27.804688 20 24 23.804688 24 28.5 L 24 42 Z "/>
<path style=" fill:#3F51B5;" d="M 27 36 L 27 23.5 C 27 20.464844 24.539063 18 21.5 18 C 18.460938 18 16 20.464844 16 23.5 L 16 36 Z "/>
<path style=" fill:#3F51B5;" d="M 17 31 L 17 22 C 17 19.238281 14.761719 17 12 17 C 9.238281 17 7 19.238281 7 22 L 7 31 Z "/>
</g>
</svg>
