<?xml version="1.0" encoding="UTF-8"?>
<svg xmlns="http://www.w3.org/2000/svg" xmlns:xlink="http://www.w3.org/1999/xlink" viewBox="0 0 48 48" version="1.1" width="48px" height="48px">
<g id="surface1">
<path style=" fill:#3F51B5;" d="M 37 8 C 38.699219 8 40 9.300781 40 11 L 40 37 C 40 38.699219 38.699219 40 37 40 L 11 40 C 9.300781 40 8 38.699219 8 37 L 8 11 C 8 9.300781 9.300781 8 11 8 L 37 8 M 37 6 L 11 6 C 8.199219 6 6 8.199219 6 11 L 6 37 C 6 39.800781 8.199219 42 11 42 L 37 42 C 39.800781 42 42 39.800781 42 37 L 42 11 C 42 8.199219 39.800781 6 37 6 Z "/>
<path style=" fill:#3F51B5;" d="M 18 16 C 18 17.105469 17.105469 18 16 18 C 14.894531 18 14 17.105469 14 16 C 14 14.894531 14.894531 14 16 14 C 17.105469 14 18 14.894531 18 16 Z "/>
<path style=" fill:#3F51B5;" d="M 25 15.5 C 25 16.878906 23.878906 18 22.5 18 C 21.121094 18 20 16.878906 20 15.5 C 20 14.121094 21.121094 13 22.5 13 C 23.878906 13 25 14.121094 25 15.5 Z "/>
<path style=" fill:#3F51B5;" d="M 33 15 C 33 16.65625 31.65625 18 30 18 C 28.34375 18 27 16.65625 27 15 C 27 13.34375 28.34375 12 30 12 C 31.65625 12 33 13.34375 33 15 Z "/>
<path style=" fill:#3F51B5;" d="M 35 36 L 35 27.5 C 35 24.5 32.5 22 29.5 22 C 26.5 22 24 24.5 24 27.5 L 24 36 Z "/>
<path style=" fill:#3F51B5;" d="M 27 32 L 27 24.800781 C 27 22.699219 25.199219 21 23 21 C 20.800781 21 19 22.699219 19 24.800781 L 19 32 Z "/>
<path style=" fill:#3F51B5;" d="M 20 29 L 20 23.699219 C 20 21.601563 18.398438 19.898438 16.5 19.898438 C 14.601563 19.898438 13 21.601563 13 23.699219 L 13 29 Z "/>
</g>
</svg>
